<?xml version="1.0" encoding="UTF-8"?>
<svg xmlns="http://www.w3.org/2000/svg" version="1.1" viewBox="0 0 800 800">
  <defs>
    <style>
      .cls-1 {
        fill: none;
      }

      .cls-2 {
        fill: #55b948;
      }
    </style>
  </defs>
  <!-- Generator: Adobe Illustrator 28.6.0, SVG Export Plug-In . SVG Version: 1.2.0 Build 709)  -->
  <g>
    <g id="Layer_1">
      <g id="Layer_2">
        <g id="invisible_box">
          <rect class="cls-1" width="800" height="800"/>
        </g>
        <g id="Q3_icons">
          <path class="cls-2" d="M705,400l56.67-85c5.3-8.47,6.52-18.87,3.33-28.33-2.91-9.59-10.41-17.09-20-20l-98.33-40-8.33-98.33c-.3-9.58-4.52-18.62-11.67-25-8.2-5.87-18.62-7.7-28.33-5l-105,21.67-68.33-76.67c-14.08-13.13-35.92-13.13-50,0l-68.33,76.67-105-21.67c-9.71-2.7-20.13-.87-28.33,5-7.15,6.38-11.36,15.42-11.67,25l-8.33,98.33-98.33,40c-9.59,2.91-17.09,10.41-20,20-3.19,9.47-1.97,19.87,3.33,28.33l56.67,85-56.67,85c-9.5,15.77-4.41,36.25,11.36,45.75,1.69,1.02,3.46,1.88,5.3,2.58l98.33,40,8.33,98.33c.3,9.58,4.52,18.62,11.67,25,8.2,5.87,18.62,7.7,28.33,5l105-21.67,68.33,75c12.18,13.81,33.24,15.13,47.05,2.95,1.04-.92,2.03-1.91,2.95-2.95l68.33-75,105,21.67c9.71,2.7,20.13.87,28.33-5,7.15-6.38,11.36-15.42,11.67-25l8.33-98.33,98.33-40c17.2-6.57,25.82-25.83,19.25-43.03-.7-1.84-1.57-3.61-2.58-5.3l-56.67-85ZM300,518.33l-70-53.33-18.33-15h-1.67l10,23.33,28.33,66.67-35,13.33-58.33-143.33,35-13.33,71.67,53.33,18.33,15h0c-2.89-7.42-6.23-14.65-10-21.67l-26.67-68.33,35-15,58.33,143.33-36.67,15ZM355,496.67l-58.33-145,110-43.33,11.67,30-73.33,28.33,10,26.67,63.33-26.67,11.67,28.33-63.33,25,11.67,31.67,75-30,11.67,30-110,45ZM586.67,401.67l-43.33-61.67-15-25h-1.67c2.78,9.3,5.01,18.77,6.67,28.33l13.33,75-35,15-98.33-128.33,36.67-15,38.33,55,21.67,33.33h0c-2.89-12.65-5.11-25.45-6.67-38.33l-11.67-66.67,33.33-13.33,38.33,56.67,20,31.67h0s-3.33-23.33-6.67-40l-10-65,35-15,20,160-35,13.33Z"/>
        </g>
      </g>
    </g>
  </g>
</svg>