<?xml version="1.0" encoding="utf-8"?>
<svg viewBox="0 0 24 24" xmlns="http://www.w3.org/2000/svg">
  <path d="M 12 0.083 C 5.429 0.083 0.083 5.429 0.083 12 C 0.083 18.571 5.429 23.917 12 23.917 C 18.571 23.917 23.917 18.571 23.917 12 C 23.917 5.429 18.571 0.083 12 0.083 Z M 2.467 12 C 2.467 10.928 2.653 9.901 2.98 8.938 L 4.849 10.809 L 7.233 13.191 L 7.233 15.575 L 9.617 17.959 L 10.809 19.151 L 10.809 21.452 C 6.114 20.861 2.467 16.853 2.467 12 Z M 19.543 17.808 C 18.766 17.18 17.586 16.767 16.767 16.767 L 16.767 15.575 C 16.767 14.259 15.699 13.191 14.383 13.191 L 9.617 13.191 L 9.617 10.809 L 9.617 9.617 C 10.933 9.617 12 8.549 12 7.233 L 12 6.041 L 13.191 6.041 C 14.507 6.041 15.575 4.973 15.575 3.658 L 15.575 3.168 C 19.065 4.585 21.533 8.007 21.533 12 C 21.533 14.186 20.786 16.197 19.543 17.808 Z" style="fill: rgb(1, 109, 182); fill-rule: nonzero;"/>
</svg>